PathFileType	4	(X/Y/Z)	/Users/itak/Documents/Research/Walk-IL/dataset/trc/00469_00167.trc
DataRate	CameraRate	NumFrames	NumMarkers	Units	OrigDataRate	OrigDataStartFrame	OrigNumFrames
100.000000	100.000000	4	53	mm	100.000000	78	628
Frame#	Time	RPSI			LPSI			L3			STRN			T10			C7			CLAV			RBAK			LBAK			LSHO			LUPA			LAEL			LAOL			LWTS			LWPS			LFRA			LIFD			LHPS			LHTS			RSHO			RUPA			RAEL			RAOL			RWTS			RWPS			RFRA			RIFD			RHTS			RHPS			RBHD			LFHD			RFHD			LBHD			LHIP			RHIP			RASI			LASI			LKNE			LTHI			LANK			LTIP			LTOE			LMT1			LMT5			LHEE			RKNE			RTHI			RANK			RTIP			RTOE			RMT1			RMT5			RHEE			
		X1	Y1	Z1	X2	Y2	Z2	X3	Y3	Z3	X4	Y4	Z4	X5	Y5	Z5	X6	Y6	Z6	X7	Y7	Z7	X8	Y8	Z8	X9	Y9	Z9	X10	Y10	Z10	X11	Y11	Z11	X12	Y12	Z12	X13	Y13	Z13	X14	Y14	Z14	X15	Y15	Z15	X16	Y16	Z16	X17	Y17	Z17	X18	Y18	Z18	X19	Y19	Z19	X20	Y20	Z20	X21	Y21	Z21	X22	Y22	Z22	X23	Y23	Z23	X24	Y24	Z24	X25	Y25	Z25	X26	Y26	Z26	X27	Y27	Z27	X28	Y28	Z28	X29	Y29	Z29	X30	Y30	Z30	X31	Y31	Z31	X32	Y32	Z32	X33	Y33	Z33	X34	Y34	Z34	X35	Y35	Z35	X36	Y36	Z36	X37	Y37	Z37	X38	Y38	Z38	X39	Y39	Z39	X40	Y40	Z40	X41	Y41	Z41	X42	Y42	Z42	X43	Y43	Z43	X44	Y44	Z44	X45	Y45	Z45	X46	Y46	Z46	X47	Y47	Z47	X48	Y48	Z48	X49	Y49	Z49	X50	Y50	Z50	X51	Y51	Z51	X52	Y52	Z52	X53	Y53	Z53	

79	0.78	-1328.521362304688	966.9802856445312	-460.5184631347656	-1311.071411132812	964.0123901367188	-600.5563354492188	-1308.648315429688	1056.560302734375	-516.2290649414062	-1042.278564453125	1259.276123046875	-503.2802734375	-1328.158935546875	1180.822875976562	-522.2018432617188	-1267.929809570312	1449.9912109375	-507.3167724609375	-1080.568603515625	1370.68359375	-509.8358764648438	-1333.72119140625	1330.222045898438	-416.0256042480469	-1293.589965820312	1400.7216796875	-608.0399169921875	-1187.427490234375	1422.900634765625	-681.3915405273438	-1190.07470703125	1305.330688476562	-780.322265625	-1163.5322265625	1091.59130859375	-816.1896362304688	-1240.393920898438	1077.080078125	-749.0486450195312	-1082.179321289062	890.3911743164062	-787.1017456054688	-1133.12939453125	873.3119506835938	-838.8610229492188	-1144.191284179688	1004.834777832031	-830.1640625	-1064.955444335938	733.6937866210938	-799.8831787109375	-1123.7939453125	795.19482421875	-839.3515014648438	-1064.935302734375	806.8826904296875	-797.8975219726562	-1208.596069335938	1423.492065429688	-343.1710205078125	-1229.606079101562	1363.83740234375	-267.6480712890625	-1221.476928710938	1076.118530273438	-209.5176544189453	-1267.8427734375	1056.502807617188	-254.9103546142578	-1104.203979492188	875.4624633789062	-242.7312774658203	-1175.754150390625	857.751708984375	-191.7342529296875	-1216.059204101562	1017.726745605469	-199.4182434082031	-1097.185180664062	719.5530395507812	-230.7468109130859	-1087.392211914062	779.174072265625	-231.09765625	-1156.388549804688	772.417236328125	-194.4098052978516	-1181.667358398438	1649.7705078125	-414.3794250488281	-1046.953125	1662.433837890625	-571.2704467773438	-1046.19970703125	1661.755981445312	-440.5955810546875	-1198.62255859375	1655.85107421875	-591.2014770507812	-1165.505126953125	863.50146484375	-704.1168212890625	-1230.8486328125	861.63671875	-312.2127380371094	-1115.418090820312	902.1758422851562	-357.9054565429688	-1074.971313476562	900.2977294921875	-614.38330078125	-1181.260498046875	445.7491760253906	-674.5068359375	-1147.714477539062	596.9838256835938	-691.6022338867188	-1268.54833984375	41.60920333862305	-684.8713989257812	-1194.604736328125	298.7990112304688	-691.5369262695312	-1047.746826171875	42.96991348266602	-585.7786254882812	-1126.542602539062	49.84637451171875	-567.5369262695312	-1113.9130859375	45.64548110961914	-680.4251708984375	-1321.555908203125	46.985595703125	-627.9230346679688	-1209.061157226562	469.372802734375	-334.1363830566406	-1188.958129882812	727.8255004882812	-295.3510437011719	-1270.515380859375	48.50104141235352	-331.8400573730469	-1211.994018554688	326.3934020996094	-323.7341003417969	-1055.161865234375	47.63994979858398	-375.3988037109375	-1118.411743164062	48.95065689086914	-413.6412658691406	-1137.615478515625	49.64447402954102	-306.3416137695312	-1335.372802734375	41.68590927124023	-378.0126342773438	
80	0.79	-1328.386596679688	966.9691772460938	-460.3518676757812	-1310.903564453125	964.024169921875	-600.4393310546875	-1308.506713867188	1056.5205078125	-516.078369140625	-1042.06640625	1259.279541015625	-503.0677185058594	-1327.9599609375	1180.797973632812	-522.017333984375	-1267.796875	1449.982543945312	-507.2006225585938	-1080.538330078125	1370.671508789062	-509.6196594238281	-1333.633666992188	1330.180541992188	-415.9173889160156	-1293.447631835938	1400.704956054688	-607.8939819335938	-1187.285034179688	1422.8408203125	-681.2493896484375	-1189.9560546875	1305.1611328125	-780.1160888671875	-1163.6650390625	1091.440551757812	-815.8557739257812	-1240.472778320312	1077.0537109375	-748.6558837890625	-1082.416259765625	890.1865234375	-786.6702880859375	-1133.445068359375	873.0291137695312	-838.3983154296875	-1144.408081054688	1004.671447753906	-829.7884521484375	-1065.507690429688	733.4710083007812	-799.3948364257812	-1124.312622070312	794.9877319335938	-838.8853149414062	-1065.334838867188	806.6038208007812	-797.4483642578125	-1208.569580078125	1423.409301757812	-342.9637145996094	-1229.565795898438	1363.747192382812	-267.5052185058594	-1221.357666015625	1076.0478515625	-209.3515319824219	-1267.720825195312	1056.39990234375	-254.7604217529297	-1103.76611328125	875.5390014648438	-242.5222473144531	-1175.496826171875	857.7322387695312	-191.5790557861328	-1215.909301757812	1017.644226074219	-199.2922973632812	-1096.767578125	719.5805053710938	-230.5365600585938	-1087.022094726562	779.1985473632812	-230.8954162597656	-1156.063720703125	772.4300537109375	-194.1656799316406	-1181.205078125	1649.823608398438	-414.1985168457031	-1046.499877929688	1662.221069335938	-571.1767578125	-1045.644653320312	1661.560302734375	-440.4893798828125	-1198.180541992188	1655.904052734375	-591.0023193359375	-1165.347778320312	863.486572265625	-703.9539184570312	-1230.7314453125	861.6346435546875	-312.0599975585938	-1115.34619140625	902.139892578125	-357.7337341308594	-1074.776000976562	900.2990112304688	-614.1862182617188	-1181.114624023438	445.6985168457031	-674.406982421875	-1147.55810546875	596.9885864257812	-691.4779052734375	-1268.550048828125	41.60730743408203	-684.8629760742188	-1194.5517578125	298.7982177734375	-691.477783203125	-1047.74560546875	42.97008514404297	-585.772216796875	-1126.51611328125	49.85103988647461	-567.521728515625	-1113.900024414062	45.6600341796875	-680.4171142578125	-1321.56103515625	46.98422241210938	-627.9099731445312	-1208.96435546875	469.3621826171875	-334.0346984863281	-1188.81396484375	727.8079833984375	-295.2565612792969	-1270.515502929688	48.49872207641602	-331.8394470214844	-1211.937255859375	326.3743286132812	-323.6602783203125	-1055.172729492188	47.64393997192383	-375.4179382324219	-1118.403076171875	48.94365692138672	-413.6365356445312	-1137.618408203125	49.64189910888672	-306.3348693847656	-1335.373657226562	41.69422912597656	-378.0148315429688	
81	0.8	-1328.247436523438	966.9651489257812	-460.1719665527344	-1310.7353515625	964.0399169921875	-600.308837890625	-1308.358520507812	1056.493408203125	-515.9324340820312	-1041.82861328125	1259.287841796875	-502.860595703125	-1327.744018554688	1180.784057617188	-521.8242797851562	-1267.649780273438	1449.979614257812	-507.0837707519531	-1080.476806640625	1370.672241210938	-509.4234924316406	-1333.53759765625	1330.147216796875	-415.794189453125	-1293.28955078125	1400.708740234375	-607.7478637695312	-1187.121826171875	1422.791015625	-681.0927124023438	-1189.827758789062	1305.021728515625	-779.918701171875	-1163.777099609375	1091.294311523438	-815.5230102539062	-1240.549438476562	1077.05859375	-748.2797241210938	-1082.657470703125	889.9711303710938	-786.23974609375	-1133.772705078125	872.773193359375	-837.9544067382812	-1144.634399414062	1004.522216796875	-829.4220581054688	-1066.07958984375	733.2489013671875	-798.898193359375	-1124.856811523438	794.7924194335938	-838.409912109375	-1065.761840820312	806.36669921875	-797.015625	-1208.5234375	1423.338256835938	-342.7583923339844	-1229.5234375	1363.663452148438	-267.3487243652344	-1221.254272460938	1075.98388671875	-209.1822967529297	-1267.607666015625	1056.306518554688	-254.6126861572266	-1103.369995117188	875.6295166015625	-242.3231658935547	-1175.24951171875	857.7227172851562	-191.4232025146484	-1215.771118164062	1017.571716308594	-199.1607971191406	-1096.354614257812	719.6214599609375	-230.3358154296875	-1086.65771484375	779.2378540039062	-230.6903076171875	-1155.747924804688	772.4509887695312	-193.9245452880859	-1180.716796875	1649.860229492188	-413.9924621582031	-1046.038696289062	1662.011596679688	-571.05712890625	-1045.103515625	1661.372924804688	-440.3754272460938	-1197.732299804688	1655.95166015625	-590.7783203125	-1165.210571289062	863.4735717773438	-703.7991943359375	-1230.602294921875	861.6393432617188	-311.900146484375	-1115.281127929688	902.0945434570312	-357.5716857910156	-1074.598999023438	900.3109130859375	-614.0003662109375	-1180.953735351562	445.6532592773438	-674.3082275390625	-1147.400390625	596.9940185546875	-691.3698120117188	-1268.551025390625	41.60442352294922	-684.8563232421875	-1194.489868164062	298.7886962890625	-691.4134521484375	-1047.745239257812	42.97259521484375	-585.7667236328125	-1126.462646484375	49.86639404296875	-567.4989624023438	-1113.887451171875	45.67500305175781	-680.4092407226562	-1321.564819335938	46.98355484008789	-627.8984375	-1208.871215820312	469.3556823730469	-333.9287719726562	-1188.658447265625	727.7906494140625	-295.1686401367188	-1270.515991210938	48.49698638916016	-331.8368225097656	-1211.883666992188	326.3598327636719	-323.5864868164062	-1055.186157226562	47.64809799194336	-375.4383850097656	-1118.400390625	48.93902587890625	-413.6293029785156	-1137.622436523438	49.6386833190918	-306.3249816894531	-1335.373413085938	41.70154571533203	-378.0165100097656	
82	0.8100000000000001	-1328.101684570312	966.9660034179688	-459.9867553710938	-1310.566040039062	964.056884765625	-600.166259765625	-1308.202514648438	1056.47802734375	-515.7871704101562	-1041.57666015625	1259.294677734375	-502.6583251953125	-1327.5205078125	1180.77978515625	-521.626708984375	-1267.486450195312	1449.982666015625	-506.9624633789062	-1080.380859375	1370.67578125	-509.2456665039062	-1333.43017578125	1330.120727539062	-415.6572570800781	-1293.1162109375	1400.73095703125	-607.5966796875	-1186.937622070312	1422.748657226562	-680.9208984375	-1189.696533203125	1304.915161132812	-779.7286376953125	-1163.857666015625	1091.1474609375	-815.1876220703125	-1240.620727539062	1077.085815429688	-747.9207153320312	-1082.905029296875	889.7384033203125	-785.8179321289062	-1134.120361328125	872.5523681640625	-837.5350952148438	-1144.8623046875	1004.377502441406	-829.06494140625	-1066.660766601562	733.017822265625	-798.3984985351562	-1125.408081054688	794.5985107421875	-837.9351806640625	-1066.204711914062	806.16455078125	-796.5983276367188	-1208.453735351562	1423.277709960938	-342.5541687011719	-1229.472290039062	1363.587158203125	-267.1831665039062	-1221.166259765625	1075.925659179688	-209.0111999511719	-1267.502075195312	1056.221435546875	-254.4670562744141	-1103.020874023438	875.7243041992188	-242.1340789794922	-1175.014770507812	857.7188110351562	-191.2656707763672	-1215.643432617188	1017.509155273438	-199.021484375	-1095.95166015625	719.6719360351562	-230.1419525146484	-1086.301513671875	779.2899169921875	-230.4889526367188	-1155.44384765625	772.4757080078125	-193.6951141357422	-1180.205932617188	1649.880737304688	-413.7636413574219	-1045.573486328125	1661.803344726562	-570.9119262695312	-1044.58935546875	1661.196166992188	-440.2553405761719	-1197.289184570312	1655.99658203125	-590.5389404296875	-1165.088500976562	863.4680786132812	-703.6541137695312	-1230.46533203125	861.6492309570312	-311.7286987304688	-1115.214477539062	902.0407104492188	-357.4203491210938	-1074.43798828125	900.3228759765625	-613.8314819335938	-1180.779052734375	445.6174926757812	-674.211669921875	-1147.241455078125	596.9989013671875	-691.27490234375	-1268.55126953125	41.60260772705078	-684.8536987304688	-1194.417846679688	298.7719421386719	-691.346923828125	-1047.747436523438	42.97760391235352	-585.7619018554688	-1126.390014648438	49.88868713378906	-567.4710083007812	-1113.876953125	45.68893051147461	-680.4019775390625	-1321.567504882812	46.98422241210938	-627.8899536132812	-1208.78076171875	469.35302734375	-333.8191833496094	-1188.49658203125	727.773681640625	-295.08056640625	-1270.516967773438	48.49583435058594	-331.8322448730469	-1211.83203125	326.3490295410156	-323.5140075683594	-1055.20166015625	47.65121078491211	-375.4599609375	-1118.404174804688	48.93727874755859	-413.6195068359375	-1137.626708984375	49.63492584228516	-306.3122863769531	-1335.372314453125	41.70702362060547	-378.0175170898438	
